<svg width="20" height="21" viewBox="0 0 20 21" fill="none" xmlns="http://www.w3.org/2000/svg">
<path d="M9.26665 15.8085C9.10832 15.8085 8.94999 15.7501 8.82499 15.6251L7.57499 14.3751C7.33332 14.1335 7.33332 13.7335 7.57499 13.4918C7.81665 13.2501 8.21665 13.2501 8.45832 13.4918L9.28332 14.3168L11.55 12.2251C11.8 11.9918 12.2 12.0085 12.4333 12.2585C12.6667 12.5085 12.65 12.9085 12.4 13.1418L9.69165 15.6418C9.57499 15.7501 9.42499 15.8085 9.26665 15.8085Z" fill="#6E7378"/>
<path d="M4.325 5.91696C4.16667 5.91696 4 5.85029 3.88334 5.73363C3.64167 5.49196 3.64167 5.09196 3.88334 4.85029L6.90834 1.82529C7.15 1.58363 7.55 1.58363 7.79167 1.82529C8.03334 2.06696 8.03334 2.46696 7.79167 2.70863L4.76667 5.73363C4.64167 5.85029 4.48334 5.91696 4.325 5.91696Z" fill="#6E7378"/>
<path d="M15.675 5.91696C15.5167 5.91696 15.3583 5.85863 15.2333 5.73363L12.2083 2.70863C11.9667 2.46696 11.9667 2.06696 12.2083 1.82529C12.45 1.58363 12.85 1.58363 13.0917 1.82529L16.1167 4.85029C16.3583 5.09196 16.3583 5.49196 16.1167 5.73363C16 5.85029 15.8333 5.91696 15.675 5.91696Z" fill="#6E7378"/>
<path d="M16.8417 9.43343C16.7833 9.43343 16.725 9.43343 16.6667 9.43343H16.475H3.33332C2.74999 9.44176 2.08332 9.44176 1.59999 8.95843C1.21666 8.58343 1.04166 8.0001 1.04166 7.14176C1.04166 4.8501 2.71666 4.8501 3.51666 4.8501H16.4833C17.2833 4.8501 18.9583 4.8501 18.9583 7.14176C18.9583 8.00843 18.7833 8.58343 18.4 8.95843C17.9667 9.39176 17.3833 9.43343 16.8417 9.43343ZM3.51666 8.18343H16.675C17.05 8.19176 17.4 8.19176 17.5167 8.0751C17.575 8.01676 17.7 7.81676 17.7 7.14176C17.7 6.2001 17.4667 6.1001 16.475 6.1001H3.51666C2.52499 6.1001 2.29166 6.2001 2.29166 7.14176C2.29166 7.81676 2.42499 8.01676 2.47499 8.0751C2.59166 8.18343 2.94999 8.18343 3.31666 8.18343H3.51666Z" fill="#6E7378"/>
<path d="M12.4083 19.5582H7.38332C4.39999 19.5582 3.73332 17.7832 3.47499 16.2416L2.29999 9.03323C2.24166 8.69156 2.47499 8.37489 2.81666 8.31656C3.14999 8.25823 3.47499 8.49156 3.53332 8.83323L4.70832 16.0332C4.94999 17.5082 5.44999 18.3082 7.38332 18.3082H12.4083C14.55 18.3082 14.7917 17.5582 15.0667 16.1082L16.4667 8.81656C16.5333 8.47489 16.8583 8.24989 17.2 8.32489C17.5417 8.39156 17.7583 8.71656 17.6917 9.05823L16.2917 16.3499C15.9667 18.0416 15.425 19.5582 12.4083 19.5582Z" fill="#6E7378"/>
</svg>
