<svg width="20" height="21" viewBox="0 0 20 21" fill="none" xmlns="http://www.w3.org/2000/svg">
<g id="vuesax/outline/logout">
<g id="logout">
<path id="Vector" d="M14.5333 13.4086C14.375 13.4086 14.2167 13.3503 14.0917 13.2253C13.85 12.9836 13.85 12.5836 14.0917 12.342L15.7833 10.6503L14.0917 8.95863C13.85 8.71696 13.85 8.31696 14.0917 8.07529C14.3333 7.83363 14.7333 7.83363 14.975 8.07529L17.1083 10.2086C17.35 10.4503 17.35 10.8503 17.1083 11.092L14.975 13.2253C14.85 13.3503 14.6917 13.4086 14.5333 13.4086Z" fill="#6E7378"/>
<path id="Vector_2" d="M16.6083 11.2749H8.13333C7.79166 11.2749 7.50833 10.9916 7.50833 10.6499C7.50833 10.3082 7.79166 10.0249 8.13333 10.0249H16.6083C16.95 10.0249 17.2333 10.3082 17.2333 10.6499C17.2333 10.9916 16.95 11.2749 16.6083 11.2749Z" fill="#6E7378"/>
<path id="Vector_3" d="M9.8 17.8919C5.50833 17.8919 2.50833 14.8919 2.50833 10.6003C2.50833 6.30859 5.50833 3.30859 9.8 3.30859C10.1417 3.30859 10.425 3.59193 10.425 3.93359C10.425 4.27526 10.1417 4.55859 9.8 4.55859C6.24166 4.55859 3.75833 7.04193 3.75833 10.6003C3.75833 14.1586 6.24166 16.6419 9.8 16.6419C10.1417 16.6419 10.425 16.9253 10.425 17.2669C10.425 17.6086 10.1417 17.8919 9.8 17.8919Z" fill="#6E7378"/>
</g>
</g>
</svg>
