<svg width="20" height="21" viewBox="0 0 20 21" fill="none" xmlns="http://www.w3.org/2000/svg">
<g id="vuesax/outline/setting-2">
<g id="setting-2">
<path id="Vector" d="M10 13.7251C8.275 13.7251 6.875 12.3251 6.875 10.6001C6.875 8.8751 8.275 7.4751 10 7.4751C11.725 7.4751 13.125 8.8751 13.125 10.6001C13.125 12.3251 11.725 13.7251 10 13.7251ZM10 8.7251C8.96667 8.7251 8.125 9.56676 8.125 10.6001C8.125 11.6334 8.96667 12.4751 10 12.4751C11.0333 12.4751 11.875 11.6334 11.875 10.6001C11.875 9.56676 11.0333 8.7251 10 8.7251Z" fill="#6E7378"/>
<path id="Vector_2" d="M12.675 19.0918C12.5 19.0918 12.325 19.0668 12.15 19.0252C11.6333 18.8835 11.2 18.5585 10.925 18.1002L10.825 17.9335C10.3333 17.0835 9.65832 17.0835 9.16666 17.9335L9.07499 18.0918C8.79999 18.5585 8.36666 18.8918 7.84999 19.0252C7.32499 19.1668 6.78332 19.0918 6.32499 18.8168L4.89166 17.9918C4.38332 17.7002 4.01666 17.2252 3.85832 16.6502C3.70832 16.0752 3.78332 15.4835 4.07499 14.9752C4.31666 14.5502 4.38332 14.1668 4.24166 13.9252C4.09999 13.6835 3.74166 13.5418 3.24999 13.5418C2.03332 13.5418 1.04166 12.5502 1.04166 11.3335V9.86684C1.04166 8.65017 2.03332 7.65851 3.24999 7.65851C3.74166 7.65851 4.09999 7.51684 4.24166 7.27517C4.38332 7.03351 4.32499 6.65017 4.07499 6.22517C3.78332 5.71684 3.70832 5.11684 3.85832 4.55017C4.00832 3.97517 4.37499 3.50017 4.89166 3.20851L6.33332 2.38351C7.27499 1.82517 8.51666 2.15017 9.08332 3.10851L9.18332 3.27517C9.67499 4.12517 10.35 4.12517 10.8417 3.27517L10.9333 3.11684C11.5 2.15017 12.7417 1.82517 13.6917 2.39184L15.125 3.21684C15.6333 3.50851 16 3.98351 16.1583 4.55851C16.3083 5.13351 16.2333 5.72517 15.9417 6.23351C15.7 6.65851 15.6333 7.04184 15.775 7.28351C15.9167 7.52517 16.275 7.66684 16.7667 7.66684C17.9833 7.66684 18.975 8.65851 18.975 9.87517V11.3418C18.975 12.5585 17.9833 13.5502 16.7667 13.5502C16.275 13.5502 15.9167 13.6918 15.775 13.9335C15.6333 14.1752 15.6917 14.5585 15.9417 14.9835C16.2333 15.4918 16.3167 16.0918 16.1583 16.6585C16.0083 17.2335 15.6417 17.7085 15.125 18.0002L13.6833 18.8252C13.3667 19.0002 13.025 19.0918 12.675 19.0918ZM9.99999 16.0085C10.7417 16.0085 11.4333 16.4752 11.9083 17.3002L12 17.4585C12.1 17.6335 12.2667 17.7585 12.4667 17.8085C12.6667 17.8585 12.8667 17.8335 13.0333 17.7335L14.475 16.9002C14.6917 16.7752 14.8583 16.5668 14.925 16.3168C14.9917 16.0668 14.9583 15.8085 14.8333 15.5918C14.3583 14.7752 14.3 13.9335 14.6667 13.2918C15.0333 12.6502 15.7917 12.2835 16.7417 12.2835C17.275 12.2835 17.7 11.8585 17.7 11.3252V9.85851C17.7 9.33351 17.275 8.90017 16.7417 8.90017C15.7917 8.90017 15.0333 8.53351 14.6667 7.89184C14.3 7.25017 14.3583 6.40851 14.8333 5.59184C14.9583 5.37517 14.9917 5.11684 14.925 4.86684C14.8583 4.61684 14.7 4.41684 14.4833 4.28351L13.0417 3.45851C12.6833 3.24184 12.2083 3.36684 11.9917 3.73351L11.9 3.89184C11.425 4.71684 10.7333 5.18351 9.99166 5.18351C9.24999 5.18351 8.55832 4.71684 8.08332 3.89184L7.99166 3.72517C7.78332 3.37517 7.31666 3.25017 6.95832 3.45851L5.51666 4.29184C5.29999 4.41684 5.13332 4.62517 5.06666 4.87517C4.99999 5.12517 5.03332 5.38351 5.15832 5.60017C5.63332 6.41684 5.69166 7.25851 5.32499 7.90017C4.95832 8.54184 4.19999 8.90851 3.24999 8.90851C2.71666 8.90851 2.29166 9.33351 2.29166 9.86684V11.3335C2.29166 11.8585 2.71666 12.2918 3.24999 12.2918C4.19999 12.2918 4.95832 12.6585 5.32499 13.3002C5.69166 13.9418 5.63332 14.7835 5.15832 15.6002C5.03332 15.8168 4.99999 16.0752 5.06666 16.3252C5.13332 16.5752 5.29166 16.7752 5.50832 16.9085L6.94999 17.7335C7.12499 17.8418 7.33332 17.8668 7.52499 17.8168C7.72499 17.7668 7.89166 17.6335 7.99999 17.4585L8.09166 17.3002C8.56666 16.4835 9.25832 16.0085 9.99999 16.0085Z" fill="#6E7378"/>
</g>
</g>
</svg>
